<svg width="124" height="94" viewBox="0 0 124 94" fill="none" xmlns="http://www.w3.org/2000/svg">
<g clip-path="url(#clip0_8_6)">
<path d="M23.153 8.888V1.4H78.353V8.888H55.409V71.288H46.193V8.888H23.153Z" fill="#262626"/>
<path d="M23.153 8.888V1.4H78.353V8.888H55.409V71.288H46.193V8.888H23.153Z" fill="#FBFDFF"/>
<path d="M45.1998 82.4578V89.9458H100.4V82.4578H77.4558V20.0578H68.2398V82.4578H45.1998Z" fill="#262626"/>
<path d="M45.1998 82.4578V89.9458H100.4V82.4578H77.4558V20.0578H68.2398V82.4578H45.1998Z" fill="#FBFDFF"/>
<path d="M7.98482 45.37L34.9608 62.938V71.962L-1.03918 48.634V42.298L34.9608 18.97V27.898L7.98482 45.37Z" fill="#262626"/>
<path d="M7.98482 45.37L34.9608 62.938V71.962L-1.03918 48.634V42.298L34.9608 18.97V27.898L7.98482 45.37Z" fill="#FBFDFF"/>
<path d="M115.079 45.37L88.1027 62.938V71.962L124.103 48.634V42.298L88.1027 18.97V27.898L115.079 45.37Z" fill="#262626"/>
<path d="M115.079 45.37L88.1027 62.938V71.962L124.103 48.634V42.298L88.1027 18.97V27.898L115.079 45.37Z" fill="#FBFDFF"/>
</g>
<defs>
<clipPath id="clip0_8_6">
<rect width="124" height="94" fill="white"/>
</clipPath>
</defs>
</svg>
